<svg xmlns="http://www.w3.org/2000/svg" viewBox="0 0 512 512" width="512" height="512">
  <rect x="0" y="0" width="512" height="512" rx="112" ry="112" fill="#1F4A5C"/>
  <text x="256" y="318" text-anchor="middle" font-family="Poppins Light" font-style="normal" font-size="140" fill="#E0F4FF" letter-spacing="-2">lumo</text>
  <g transform="translate(388, 152)">
    <path d="M 0 -38 L 10 -10 L 38 0 L 10 10 L 0 38 L -10 10 L -38 0 L -10 -10 Z" fill="#4ECDC4"/>
  </g>
  <g transform="translate(436, 112)">
    <path d="M 0 -12 L 3 -3 L 12 0 L 3 3 L 0 12 L -3 3 L -12 0 L -3 -3 Z" fill="#8FC5E8"/>
  </g>
  <g transform="translate(356, 192)">
    <path d="M 0 -9 L 3 -3 L 9 0 L 3 3 L 0 9 L -3 3 L -9 0 L -3 -3 Z" fill="#8FC5E8"/>
  </g>
</svg>
